<?xml version="1.0" standalone="no"?>
<!DOCTYPE svg PUBLIC "-//W3C//DTD SVG 20010904//EN"
 "http://www.w3.org/TR/2001/REC-SVG-20010904/DTD/svg10.dtd">
<svg version="1.0" xmlns="http://www.w3.org/2000/svg"
 width="116.000000pt" height="128.000000pt" viewBox="0 0 116.000000 128.000000"
 preserveAspectRatio="xMidYMid meet">

<g transform="translate(0.000000,128.000000) scale(0.100000,-0.100000)"
fill="#000000" stroke="none">
<path d="M500 1131 c0 -5 6 -12 13 -15 8 -3 7 -8 -5 -16 -10 -6 -18 -22 -18
-34 0 -27 -22 -40 -39 -23 -16 16 -14 35 7 46 12 7 14 13 6 21 -16 16 -60 -23
-74 -65 -14 -43 -7 -69 25 -83 31 -14 32 -42 4 -68 -12 -10 -30 -36 -40 -56
-15 -30 -25 -38 -47 -38 -35 -1 -203 -153 -187 -169 7 -7 27 3 65 34 l54 45
26 -24 c14 -13 54 -37 90 -52 94 -42 95 -43 132 -109 20 -35 45 -65 61 -73 38
-18 48 -42 45 -108 l-3 -56 60 -33 c73 -40 77 -61 20 -91 -30 -15 -40 -26 -40
-45 0 -26 -4 -25 123 -21 86 3 89 7 69 90 -9 38 -17 85 -17 103 0 19 -11 54
-25 78 -33 56 -33 96 0 117 14 9 25 24 25 33 0 9 7 30 16 46 28 52 33 84 23
144 -13 86 -66 261 -83 280 -8 9 -48 32 -88 51 -40 19 -79 43 -86 53 -17 23
-38 22 -45 -3 -3 -11 -10 -20 -15 -20 -13 0 -22 39 -11 46 18 10 9 24 -16 24
-14 0 -25 -4 -25 -9z m53 -303 c4 -12 -20 -107 -29 -117 -9 -10 -96 12 -101
25 -6 15 42 63 91 91 27 16 33 16 39 1z"/>
</g>
</svg>
